<svg width="357" height="267" viewBox="0 0 357 267" fill="none" xmlns="http://www.w3.org/2000/svg">
<path fill-rule="evenodd" clip-rule="evenodd" d="M185.167 124.333L179 130.5L197.5 149L228.333 118.167L222.167 112L197.5 136.667L185.167 124.333Z" fill="black"/>
<path d="M31.0547 246.055H17.5547V260H10.5234V225.875H32.7422V231.57H17.5547V240.383H31.0547V246.055ZM57.3516 245.211H43.8516V254.352H59.6953V260H36.8203V225.875H59.6484V231.57H43.8516V239.703H57.3516V245.211ZM84.3516 245.211H70.8516V254.352H86.6953V260H63.8203V225.875H86.6484V231.57H70.8516V239.703H84.3516V245.211ZM90.8203 260V225.875H101.32C104.32 225.875 107 226.555 109.359 227.914C111.734 229.258 113.586 231.18 114.914 233.68C116.242 236.164 116.906 238.992 116.906 242.164V243.734C116.906 246.906 116.25 249.727 114.938 252.195C113.641 254.664 111.805 256.578 109.43 257.938C107.055 259.297 104.375 259.984 101.391 260H90.8203ZM97.8516 231.57V254.352H101.25C104 254.352 106.102 253.453 107.555 251.656C109.008 249.859 109.75 247.289 109.781 243.945V242.141C109.781 238.672 109.062 236.047 107.625 234.266C106.188 232.469 104.086 231.57 101.32 231.57H97.8516ZM122.039 260V225.875H133.992C138.133 225.875 141.273 226.672 143.414 228.266C145.555 229.844 146.625 232.164 146.625 235.227C146.625 236.898 146.195 238.375 145.336 239.656C144.477 240.922 143.281 241.852 141.75 242.445C143.5 242.883 144.875 243.766 145.875 245.094C146.891 246.422 147.398 248.047 147.398 249.969C147.398 253.25 146.352 255.734 144.258 257.422C142.164 259.109 139.18 259.969 135.305 260H122.039ZM129.07 245.141V254.352H135.094C136.75 254.352 138.039 253.961 138.961 253.18C139.898 252.383 140.367 251.289 140.367 249.898C140.367 246.773 138.75 245.188 135.516 245.141H129.07ZM129.07 240.172H134.273C137.82 240.109 139.594 238.695 139.594 235.93C139.594 234.383 139.141 233.273 138.234 232.602C137.344 231.914 135.93 231.57 133.992 231.57H129.07V240.172ZM171.961 252.969H159.633L157.289 260H149.812L162.516 225.875H169.031L181.805 260H174.328L171.961 252.969ZM161.531 247.273H170.062L165.773 234.5L161.531 247.273ZM211.266 248.633C211 252.305 209.641 255.195 207.188 257.305C204.75 259.414 201.531 260.469 197.531 260.469C193.156 260.469 189.711 259 187.195 256.062C184.695 253.109 183.445 249.062 183.445 243.922V241.836C183.445 238.555 184.023 235.664 185.18 233.164C186.336 230.664 187.984 228.75 190.125 227.422C192.281 226.078 194.781 225.406 197.625 225.406C201.562 225.406 204.734 226.461 207.141 228.57C209.547 230.68 210.938 233.641 211.312 237.453H204.281C204.109 235.25 203.492 233.656 202.43 232.672C201.383 231.672 199.781 231.172 197.625 231.172C195.281 231.172 193.523 232.016 192.352 233.703C191.195 235.375 190.602 237.977 190.57 241.508V244.086C190.57 247.773 191.125 250.469 192.234 252.172C193.359 253.875 195.125 254.727 197.531 254.727C199.703 254.727 201.32 254.234 202.383 253.25C203.461 252.25 204.078 250.711 204.234 248.633H211.266ZM226.57 246.312L222.914 250.25V260H215.883V225.875H222.914V241.344L226.008 237.102L234.703 225.875H243.352L231.234 241.039L243.703 260H235.336L226.57 246.312ZM277.57 252.969H265.242L262.898 260H255.422L268.125 225.875H274.641L287.414 260H279.938L277.57 252.969ZM267.141 247.273H275.672L271.383 234.5L267.141 247.273ZM297.633 247.977V260H290.602V225.875H303.914C306.477 225.875 308.727 226.344 310.664 227.281C312.617 228.219 314.117 229.555 315.164 231.289C316.211 233.008 316.734 234.969 316.734 237.172C316.734 240.516 315.586 243.156 313.289 245.094C311.008 247.016 307.844 247.977 303.797 247.977H297.633ZM297.633 242.281H303.914C305.773 242.281 307.188 241.844 308.156 240.969C309.141 240.094 309.633 238.844 309.633 237.219C309.633 235.547 309.141 234.195 308.156 233.164C307.172 232.133 305.812 231.602 304.078 231.57H297.633V242.281ZM328.617 247.977V260H321.586V225.875H334.898C337.461 225.875 339.711 226.344 341.648 227.281C343.602 228.219 345.102 229.555 346.148 231.289C347.195 233.008 347.719 234.969 347.719 237.172C347.719 240.516 346.57 243.156 344.273 245.094C341.992 247.016 338.828 247.977 334.781 247.977H328.617ZM328.617 242.281H334.898C336.758 242.281 338.172 241.844 339.141 240.969C340.125 240.094 340.617 238.844 340.617 237.219C340.617 235.547 340.125 234.195 339.141 233.164C338.156 232.133 336.797 231.602 335.062 231.57H328.617V242.281Z" fill="black"/>
<path fill-rule="evenodd" clip-rule="evenodd" d="M250.074 145.649C257.33 140.193 260 134.512 260 130C260 124.65 256.247 117.657 245.547 111.344C235.118 105.192 219.926 101 202.5 101C185.074 101 169.882 105.192 159.453 111.344C148.753 117.657 145 124.65 145 130C145 135.35 148.753 142.343 159.453 148.656C169.882 154.808 185.074 159 202.5 159C212.177 159 221.165 157.707 229.031 155.504L262 181L250.074 145.649ZM202.5 171C212.484 171 221.977 169.758 230.558 167.522L234.072 170.179L254.572 185.679L275.949 201.842L268.661 176.052L262.161 153.052L261.715 151.475C268.237 145.23 272 137.874 272 130C272 107.356 240.884 89 202.5 89C164.116 89 133 107.356 133 130C133 152.644 164.116 171 202.5 171Z" fill="black"/>
<path fill-rule="evenodd" clip-rule="evenodd" d="M76 0V158.665V158.668H152.813C144.871 153.878 138.903 147.944 135.685 141.325H93.3428V17.3441H217.321V89.9344C223.443 90.7187 229.263 91.9789 234.666 93.6459V0H76Z" fill="black"/>
<path fill-rule="evenodd" clip-rule="evenodd" d="M123 41H159.131C167.922 41 174.573 43.256 179.079 47.7723C182.566 51.2704 184.31 55.6024 184.31 60.7683V60.9849C184.31 63.1721 184.039 65.1004 183.498 66.7726C182.951 68.4492 182.231 69.9561 181.325 71.3007C180.423 72.6525 179.374 73.8317 178.177 74.8558C176.987 75.8726 175.706 76.7445 174.329 77.4702C178.747 79.1512 182.226 81.4233 184.76 84.2967C186.157 85.8791 187.169 87.7967 187.798 90.0508C182.227 90.8097 176.913 91.9636 171.945 93.4598C171.774 91.2506 170.799 89.4694 169.023 88.1195C167.055 86.6273 163.892 85.8826 159.523 85.8826H140.085V102.696H151.653C145.26 106.917 140.327 111.924 137.321 117.441H123V41ZM155.593 71.9034C159.299 71.9034 162.255 71.2655 164.437 69.9942C166.62 68.7213 167.713 66.6629 167.713 63.8261V63.6037C167.713 61.061 166.768 59.1137 164.873 57.7677C162.98 56.4159 160.249 55.7443 156.685 55.7443H140.084V71.9034H155.593Z" fill="black"/>
</svg>
