<svg width="434" height="109" viewBox="0 0 434 109" fill="none" xmlns="http://www.w3.org/2000/svg">
<path d="M32.688 28.106H57.389C63.4 28.106 67.947 29.648 71.025 32.736C73.408 35.127 74.602 38.087 74.602 41.619V41.768C74.602 43.263 74.416 44.581 74.046 45.725C73.674 46.87 73.181 47.901 72.562 48.82C71.944 49.744 71.228 50.551 70.41 51.25C69.594 51.946 68.72 52.542 67.779 53.038C70.8 54.187 73.178 55.741 74.91 57.705C76.644 59.671 77.514 62.394 77.514 65.88V66.028C77.514 68.418 77.053 70.506 76.135 72.297C75.215 74.089 73.899 75.584 72.184 76.776C70.47 77.971 68.411 78.87 65.999 79.467C63.59 80.063 60.919 80.363 57.989 80.363H32.688V28.106ZM54.97 49.233C57.505 49.233 59.523 48.797 61.016 47.928C62.508 47.058 63.256 45.651 63.256 43.712V43.559C63.256 41.821 62.609 40.489 61.312 39.569C60.021 38.645 58.154 38.186 55.716 38.186H44.367V49.232H54.97V49.233ZM58.032 70.284C60.565 70.284 62.557 69.823 64 68.904C65.443 67.985 66.166 66.551 66.166 64.611V64.463C66.166 62.723 65.493 61.34 64.151 60.319C62.805 59.299 60.641 58.79 57.656 58.79H44.367V70.284H58.032Z" fill="black"/>
<path d="M116.47 28.106H128.102V31.275V37.278H116.47V34.168V28.106Z" fill="black"/>
<path d="M116.47 41.322H128.102V62.828V80.364H116.47V46V41.322Z" fill="black"/>
<path d="M136.101 28.051H147.733V60.461V80.364H136.101V42.845V28.051Z" fill="black"/>
<path d="M155.73 28.051H167.364V56.781V80.364H155.73V40.478V28.051Z" fill="black"/>
<path d="M255.487 55.482V80.363H243.859V58.07C243.859 52.625 241.86 49.676 237.007 49.676C232.424 49.676 229.487 52.322 229.487 58.072V80.363H217.855V41.322H228.835V46.303H229.71C232.253 42.129 236.235 40.095 241.639 40.095C250.739 40.095 255.487 46.015 255.487 55.482Z" fill="black"/>
<path d="M300.234 55.482V80.363H288.601V58.07C288.601 52.625 286.603 49.676 281.75 49.676C277.168 49.676 274.229 52.322 274.229 58.072V80.363H262.599V41.322H273.578V46.303H274.454C276.998 42.129 280.98 40.095 286.387 40.095C295.484 40.095 300.234 46.015 300.234 55.482Z" fill="black"/>
<path d="M307.345 28.106H318.976V30.092V36.749H307.345V32.985V28.106Z" fill="black"/>
<path d="M307.345 41.322H318.976V46.92V80.364H307.345V52.705V41.322Z" fill="black"/>
<path d="M363.718 41.322V80.363H352.835V74.615H352.022C349.591 79.472 345.574 81.59 339.752 81.59C330.796 81.59 326.085 75.638 326.085 66.203V41.323H337.716V63.615C337.716 69.379 340.079 72.01 344.82 72.01C349.465 72.01 352.089 68.846 352.089 63.804V41.323H363.718V41.322Z" fill="black"/>
<path d="M433.884 55.519V80.363H422.252V58.01C422.252 54.531 421.255 49.676 415.593 49.676C410.9 49.676 408.169 52.159 408.169 58.058V80.363H396.537V58.01C396.537 52.385 394.382 49.676 389.836 49.676C385.259 49.676 382.452 51.964 382.452 57.851V80.363H370.821V41.322H381.8V46.303H382.67C385.178 42.151 389.029 40.095 394.127 40.095C400.074 40.095 404.293 42.458 406.274 46.303H408.334C411.025 41.899 415.109 40.095 420.2 40.095C429.112 40.095 433.884 46.21 433.884 55.519Z" fill="black"/>
<path d="M0 0V108.471V108.472H108.47V108.471V0H0ZM96.614 96.616H11.855V11.857H96.614V96.616Z" fill="black"/>
<path d="M212.804 68.452C211.374 76.521 204.132 81.59 193.693 81.59C181.144 81.59 172.746 74.141 172.746 60.926V60.682C172.746 47.674 181.047 40.095 193.08 40.095C205.09 40.095 212.518 47.462 212.518 60.098C212.518 61.398 212.455 62.7 212.334 64.254H184.669C185.306 69.113 188.294 72.132 193.761 72.132C197.25 72.132 199.673 70.994 200.877 68.452H212.804ZM184.804 56.564H201.152C200.619 52.448 197.746 49.582 193.095 49.582C188.495 49.582 185.646 52.528 184.804 56.564Z" fill="black"/>
</svg>
